<?xml version="1.0" encoding="utf-8"?>
<!-- Generator: Adobe Illustrator 24.0.0, SVG Export Plug-In . SVG Version: 6.00 Build 0)  -->
<svg version="1.1" id="Layer_1" xmlns="http://www.w3.org/2000/svg" xmlns:xlink="http://www.w3.org/1999/xlink" x="0px" y="0px"
	 viewBox="0 0 512 512" style="enable-background:new 0 0 512 512;" xml:space="preserve">
<style type="text/css">
	.st0{fill:#231F20;}
</style>
<g id="XMLID_2_">
	<path id="XMLID_10_" class="st0" d="M406.5,208.5l-5.4,15.1c21.4-4.2,42.5-4.2,42.5-4.2l5.5-15.1
		C449,204.2,427.7,204.2,406.5,208.5 M411.3,308l28.4-78.4c0,0-21.3,0-42.5,4.3L370.4,308H411.3z"/>
	<path id="XMLID_9_" class="st0" d="M253.1,303.8c14.4,2.8,29.3,4.3,44.6,4.3c24.2,0,34.2-2.4,46.7-8.8
		c10.7-5.5,17.7-11.3,20.8-21.3c2.6-8.6-0.7-16.7-8.4-21.8c-7.7-5.1-15.1-7.6-24-12.5c-7.7-4.3-11.9-7.5-11.4-11.9
		c1.1-9.4,11.1-12.4,24.9-12.4c13.5,0,26.6,1.2,39.4,3.5l5.2-14.4c-14.4-2.8-29.3-4.3-44.6-4.3c-24.2,0-34.1,2.4-46.7,8.8
		c-10.7,5.5-17.7,11.3-20.7,21.3c-2.6,8.6,0.7,16.7,8.4,21.8c7.7,5.1,15.1,7.6,23.9,12.5c7.7,4.3,12,7.5,11.4,11.9
		c-1.1,9.4-11.1,12.5-24.9,12.5c-13.5,0-26.6-1.2-39.4-3.6L253.1,303.8z"/>
	<path id="XMLID_8_" class="st0" d="M237.5,308l26.4-72.7c2.1-5.9,2.3-16.5-3.6-22.3c-5.9-5.8-13-8.8-26-8.8
		c-13,0-23.6,3.4-32.1,6.7c-4.6,1.8-11.4,5.3-19,9.9c-0.7-2.9-2.1-5.7-4.3-7.8c-5.9-5.8-13-8.8-26-8.8c-13.1,0-23.6,3.4-32.1,6.7
		c-4.6,1.8-11.3,5.3-19,9.9c-0.7-2.9-2.1-5.7-4.2-7.8c-5.9-5.8-13-8.8-26-8.8L33.7,308h40.9l18.8-51.9c3.4-9.4,12.7-18.4,17.8-22.3
		c6.5-5,35.5-13,27.6,8.8L115.1,308h40.9l18.8-51.9c3.4-9.4,12.7-18.4,17.8-22.3c6.5-5,35.5-13,27.6,8.8L196.6,308H237.5z"/>
	<path id="XMLID_3_" class="st0" d="M470.2,208.9h-1.7v3.2h1.7c1,0,1.7-0.7,1.7-1.6C471.9,209.6,471.2,208.9,470.2,208.9 M472,216.9
		l-2.1-3.7h-1.4v3.7h-1.3v-9.2h3.1c1.6,0,2.9,1.2,2.9,2.8c0,1.3-0.8,2.2-1.9,2.5l2.2,3.9H472z M469.9,205.2c-3.9,0-7.1,3.2-7.1,7.2
		c0,3.9,3.1,7.2,7.1,7.2c3.9,0,7.1-3.2,7.1-7.2C477,208.4,473.8,205.2,469.9,205.2 M469.9,220.7c-4.7,0-8.4-3.7-8.4-8.4
		c0-4.6,3.7-8.4,8.4-8.4c4.6,0,8.4,3.7,8.4,8.4C478.3,217,474.6,220.7,469.9,220.7"/>
</g>
</svg>
