<?xml version="1.0" encoding="utf-8"?>
<!-- Generator: Adobe Illustrator 26.0.3, SVG Export Plug-In . SVG Version: 6.00 Build 0)  -->
<svg version="1.0" id="katman_1" xmlns="http://www.w3.org/2000/svg" xmlns:xlink="http://www.w3.org/1999/xlink" x="0px" y="0px"
	 viewBox="0 0 600 450" style="enable-background:new 0 0 600 450;" xml:space="preserve">
<style type="text/css">
	.st0{fill:#010202;}
	.st1{fill:#FFFFFF;}
</style>
<g id="WD" transform="translate(0 0)">
	<path id="path818" class="st0" d="M507.7,320.8c0,14.3-11.6,25.9-25.9,25.9c0,0,0,0-0.1,0H117.6c-14.3,0-25.9-11.5-25.9-25.8
		c0,0,0-0.1,0-0.1V129.9c0-14.3,11.6-25.9,25.9-25.8h364.2c14.3,0,25.8,11.6,25.9,25.8V320.8"/>
	<g id="Group_19756" transform="translate(-0.299)">
		<path id="path822" class="st1" d="M319.8,188.1l9.6-28h-37.9l-8.9,28H319.8"/>
		<path id="path824" class="st1" d="M259,188.1l-3-28h-28.9l-14.8,28H259"/>
		<path id="path826" class="st1" d="M279.1,197.9l-14.3,44.8l-4.8-45.4l-52.3-1.9l-23.5,44.4l6.7-45.1l-36.4-1.2l-10.6,95h49.9
			l38.1-77.2l7.8,77.2h44.9l30.8-89.4L279.1,197.9"/>
		<path id="path828" class="st1" d="M192.1,188.1l4.2-28.5h-37.8l-3.2,28.4L192.1,188.1"/>
		<path id="path830" class="st1" d="M410.7,161.2h-71.6l-9.3,27.2h64.6c12.1-0.6,22.4,8.8,23,20.9c0.2,3.9-0.7,7.7-2.4,11.1
			c-7,18.6-24.4,31.3-44.3,32.1c-4.8,0.5-9.6,0.6-14.4,0.2l17.6-50.3l-48.1-1.7L296,287.1h71.5c39.1-1.8,73.4-26.5,87.6-62.9
			c10.5-22.1,1.1-48.5-21-59C426.8,161.8,418.8,160.3,410.7,161.2"/>
	</g>
</g>
</svg>
